<?xml version="1.0" encoding="UTF-8"?>
<svg version="1.1" xmlns="http://www.w3.org/2000/svg" width="512" height="512">
<path d="M0 0 C168.96 0 337.92 0 512 0 C512 168.96 512 337.92 512 512 C343.04 512 174.08 512 0 512 C0 343.04 0 174.08 0 0 Z " fill="#000000" transform="translate(0,0)"/>
<path d="M0 0 C9.28983641 7.85851347 13.79307146 16.97712064 14.93380737 28.98968506 C15.32008349 34.68314755 15.25772494 40.37803932 15.234375 46.08203125 C15.23296005 47.39964447 15.2315451 48.71725769 15.23008728 50.07479858 C15.22630603 53.5434974 15.21651437 57.01215299 15.2053833 60.48083496 C15.19507365 64.03409226 15.19051421 67.58735688 15.18554688 71.140625 C15.17542056 78.08727751 15.15583799 85.03381199 15.13671875 91.98046875 C6.55671875 91.98046875 -2.02328125 91.98046875 -10.86328125 91.98046875 C-10.86328125 83.40046875 -10.86328125 74.82046875 -10.86328125 65.98046875 C-18.45328125 65.98046875 -26.04328125 65.98046875 -33.86328125 65.98046875 C-33.86328125 74.56046875 -33.86328125 83.14046875 -33.86328125 91.98046875 C-42.44328125 91.98046875 -51.02328125 91.98046875 -59.86328125 91.98046875 C-59.95403741 83.17397981 -60.02725776 74.36780691 -60.07052994 65.56095409 C-60.09130966 61.47055219 -60.11944857 57.38048979 -60.16503906 53.2902832 C-60.20884384 49.33504768 -60.23249045 45.38013648 -60.24279022 41.4246769 C-60.25012006 39.92373876 -60.26443172 38.42281621 -60.28620148 36.92201805 C-60.47301981 23.49573957 -58.39985347 12.92408979 -48.86328125 2.98046875 C-34.97947182 -9.50949367 -15.43320941 -10.88536052 0 0 Z " fill="#FB4F00" transform="translate(108.86328125,277.01953125)"/>
<path d="M0 0 C4.29 0 8.58 0 13 0 C13 2.31 13 4.62 13 7 C12.01 7 11.02 7 10 7 C10.495 9.97 10.495 9.97 11 13 C13.21460369 11.17054478 13.94372483 10.32961168 14.4375 7.4375 C14.7159375 6.2309375 14.7159375 6.2309375 15 5 C16.32 4.34 17.64 3.68 19 3 C21.64 5.64 24.28 8.28 27 11 C26.34 12.32 25.68 13.64 25 15 C23.68 15 22.36 15 21 15 C20.01 15.33 19.02 15.66 18 16 C20.7995733 22.61717325 26.04298216 27.07480761 31.42578125 31.58203125 C31.94527344 32.04996094 32.46476562 32.51789063 33 33 C33 33.33 33 33.66 33 34 C29.7 34 26.4 34 23 34 C22.9071875 35.051875 22.9071875 35.051875 22.8125 36.125 C21.53832077 40.63363418 18.79793015 43.83663343 14.875 46.375 C13 47 13 47 10 47 C10 48.32 10 49.64 10 51 C11.155 51.061875 12.31 51.12375 13.5 51.1875 C21.49992539 52.21747276 28.14646947 57.77994146 33 64 C38.36742948 72.45776767 39.35677517 80.76015874 37.5234375 90.54296875 C34.95558734 99.5304443 28.92325773 106.24604536 21 111 C17.36580764 112.72282822 14.07787755 114 10 114 C10 115.32 10 116.64 10 118 C10.86625 118.020625 11.7325 118.04125 12.625 118.0625 C17.29978552 119.36105153 19.25823209 122.13294624 22 126 C23 128 23 128 23 139 C11.78 139 0.56 139 -11 139 C-11 126.39800995 -11 126.39800995 -6 121 C-3.26648989 118.92347086 -0.54295395 117 3 117 C3 116.01 3 115.02 3 114 C1.5459375 113.9071875 1.5459375 113.9071875 0.0625 113.8125 C-8.65498328 112.51190774 -15.59992619 106.66781123 -21 100 C-26.34500316 92.60733366 -26.32942053 82.74062935 -25 74 C-21.96400103 64.01666033 -15.87267551 57.52495844 -6.875 52.5625 C-3.50222989 50.99609491 -0.74453621 50.62554638 3 51 C3 49.68 3 48.36 3 47 C2.13375 46.979375 1.2675 46.95875 0.375 46.9375 C-4.29978552 45.63894847 -6.25823209 42.86705376 -9 39 C-11.21787609 34.56424782 -10.53728377 28.81269078 -10 24 C-8.64179699 21.06514175 -7.23026899 19.39753916 -5 17 C-7.95377498 14.63019987 -7.95377498 14.63019987 -12 15 C-12.66 13.68 -13.32 12.36 -14 11 C-11.69 8.36 -9.38 5.72 -7 3 C-3 4 -3 4 -1.75 6.0625 C-1.5025 6.701875 -1.255 7.34125 -1 8 C-1.66 8 -2.32 8 -3 8 C-0.45395403 11.52381687 -0.45395403 11.52381687 3 14 C3 11.36 3 8.72 3 6 C2.01 6 1.02 6 0 6 C0 4.02 0 2.04 0 0 Z " fill="#FB4F00" transform="translate(250,129)"/>
<path d="M0 0 C6.21167496 5.12514436 10.7356848 11.23863316 12.4296875 19.203125 C12.52689539 20.6456757 12.57752713 22.09183655 12.59082031 23.53759766 C12.60042786 24.3859317 12.6100354 25.23426575 12.61993408 26.10830688 C12.62418396 27.01873749 12.62843384 27.92916809 12.6328125 28.8671875 C12.63851257 29.81443695 12.64421265 30.7616864 12.65008545 31.73764038 C12.65952577 33.74321378 12.66606559 35.74880262 12.66992188 37.75439453 C12.67958601 40.79618098 12.71060157 43.83727947 12.7421875 46.87890625 C12.74872236 48.83332935 12.75397093 50.78775725 12.7578125 52.7421875 C12.7701593 53.64047272 12.7825061 54.53875793 12.79522705 55.46426392 C12.75710383 66.48097799 9.48007 76.00079226 1.71875 83.95703125 C-8.66158727 92.69491009 -21.60655985 92.77409803 -34.46484375 92.49365234 C-36.5703125 92.203125 -36.5703125 92.203125 -41.5703125 90.203125 C-41.5703125 83.603125 -41.5703125 77.003125 -41.5703125 70.203125 C-38.1053125 70.698125 -38.1053125 70.698125 -34.5703125 71.203125 C-28.20745898 71.69548867 -23.25930885 71.43804449 -17.5703125 68.203125 C-14.52973678 65.55914611 -12.84659136 64.03196158 -11.5703125 60.203125 C-11.43765307 57.53054074 -11.35814793 54.88480845 -11.33203125 52.2109375 C-11.3239595 51.42798309 -11.31588776 50.64502869 -11.30757141 49.83834839 C-11.29375084 48.18245648 -11.28301963 46.52653633 -11.27514648 44.87060547 C-11.25792193 42.34417608 -11.2140187 39.81905196 -11.16992188 37.29296875 C-11.15979523 35.68230126 -11.15127904 34.07162269 -11.14453125 32.4609375 C-11.12702316 31.70869904 -11.10951508 30.95646057 -11.09147644 30.181427 C-11.11195873 25.20581662 -12.04415683 22.70737394 -15.5703125 19.203125 C-18.3518618 17.01762198 -19.87179223 17.203125 -23.5078125 17.203125 C-26.95154698 17.76313416 -27.73644965 18.34503382 -30.5703125 20.765625 C-33.64001063 26.04166865 -33.0247645 29.74908419 -31.9453125 35.578125 C-30.77544697 38.3826998 -30.77544697 38.3826998 -28.0703125 39.640625 C-24.84919873 40.158304 -22.55526585 40.09686569 -19.3515625 39.73828125 C-18.45501953 39.64039307 -17.55847656 39.54250488 -16.63476562 39.44165039 C-15.95349609 39.36293701 -15.27222656 39.28422363 -14.5703125 39.203125 C-14.54143436 42.68227441 -14.52355563 46.16139331 -14.5078125 49.640625 C-14.49943359 50.63384766 -14.49105469 51.62707031 -14.48242188 52.65039062 C-14.47919922 53.59462891 -14.47597656 54.53886719 -14.47265625 55.51171875 C-14.46741943 56.38626709 -14.46218262 57.26081543 -14.45678711 58.16186523 C-14.5703125 60.203125 -14.5703125 60.203125 -15.5703125 61.203125 C-24.674527 62.18367435 -35.55459003 62.88193503 -43.53125 57.87890625 C-47.42286158 54.68062777 -50.62409179 51.28981824 -53.5703125 47.203125 C-54.02664063 46.57148438 -54.48296875 45.93984375 -54.953125 45.2890625 C-59.24001321 37.76452446 -58.73096538 27.54463961 -57.5703125 19.203125 C-54.87176588 10.08321927 -49.12743414 2.59678707 -41.01171875 -2.359375 C-27.52777531 -9.41189817 -12.56617127 -8.78486138 0 0 Z " fill="#FC5000" transform="translate(450.5703125,305.796875)"/>
<path d="M0 0 C9.08906983 5.72919277 14.29827238 13.6096609 17.65234375 23.671875 C18.57949377 36.70495529 17.85989632 46.58507278 9.27734375 57.046875 C1.24829626 65.50852203 -6.82651849 68.93800948 -18.53515625 69.296875 C-28.50672081 69.30126148 -36.27726568 66.10154539 -43.8515625 59.484375 C-52.50824358 50.30159728 -54.95054714 41.20067252 -54.68359375 28.85546875 C-54.12027943 18.6110624 -48.8124808 10.41786459 -41.34765625 3.671875 C-29.87690009 -5.25955346 -12.98634494 -6.34175418 0 0 Z " fill="#FC5000" transform="translate(301.34765625,301.328125)"/>
<path d="M0 0 C10.02254248 0.53341262 17.96514986 3.61595253 25.3046875 10.5390625 C30.69441595 16.91622212 34.48984358 24.94536953 34.46508789 33.36230469 C34.46497459 34.65319 34.46497459 34.65319 34.46485901 35.97015381 C34.45969772 36.89008118 34.45453644 37.81000854 34.44921875 38.7578125 C34.4478038 39.70658264 34.44638885 40.65535278 34.44493103 41.63287354 C34.43933992 44.65892712 34.42678902 47.68490633 34.4140625 50.7109375 C34.40904635 52.76432185 34.40448365 54.81770736 34.40039062 56.87109375 C34.3902249 61.90109327 34.37064768 66.93093227 34.3515625 71.9609375 C26.4315625 71.9609375 18.5115625 71.9609375 10.3515625 71.9609375 C10.32578125 69.14304687 10.3 66.32515625 10.2734375 63.421875 C10.23498338 60.68137789 10.18983404 57.94106678 10.14404297 55.20068359 C10.1158833 53.30168596 10.09464392 51.4025722 10.08056641 49.50341797 C10.05906732 46.76730112 10.01238242 44.03257298 9.9609375 41.296875 C9.95970886 40.45289154 9.95848022 39.60890808 9.95721436 38.73934937 C9.82152507 33.23173653 8.92562974 30.20650123 5.3515625 25.9609375 C1.65430875 24.11231062 -2.61305192 24.48506656 -6.6484375 24.9609375 C-9.58266945 26.75740604 -11.12049105 27.9050446 -12.6484375 30.9609375 C-13.41550799 37.65938742 -13.41550799 37.65938742 -11.6015625 43.984375 C-9.84135751 46.10697514 -8.12355068 47.72338091 -5.6484375 48.9609375 C-1.33852681 49.09996688 2.19058932 49.05467282 6.3515625 47.9609375 C6.38043234 51.94008909 6.39831656 55.91921403 6.4140625 59.8984375 C6.42244141 61.03474609 6.43082031 62.17105469 6.43945312 63.34179688 C6.44267578 64.42138672 6.44589844 65.50097656 6.44921875 66.61328125 C6.45445557 67.61351318 6.45969238 68.61374512 6.46508789 69.64428711 C6.3515625 71.9609375 6.3515625 71.9609375 5.3515625 72.9609375 C-7.0179616 73.86892904 -16.19813113 73.01147331 -25.9609375 64.7109375 C-29.98877969 60.86646646 -33.20378491 56.9724753 -35.6484375 51.9609375 C-36.18984375 50.90326172 -36.18984375 50.90326172 -36.7421875 49.82421875 C-39.5826731 40.84975346 -39.14077144 28.6837984 -35.1484375 20.2109375 C-29.09875841 10.2219325 -20.72084685 3.34058585 -9.265625 0.3359375 C-6.15104865 -0.11059674 -3.14031861 -0.04631738 0 0 Z " fill="#FB5000" transform="translate(166.6484375,297.0390625)"/>
<path d="M0 0 C5.28 0 10.56 0 16 0 C16.03738281 2.50335938 16.07476562 5.00671875 16.11328125 7.5859375 C16.15946735 10.00529823 16.2107114 12.42450243 16.26245117 14.84375 C16.29574435 16.52757285 16.32376256 18.21150848 16.34643555 19.89550781 C16.37990205 22.31364086 16.43221036 24.73073624 16.48828125 27.1484375 C16.49467117 27.9036972 16.5010611 28.65895691 16.50764465 29.43710327 C16.53980318 31.78645901 16.53980318 31.78645901 17 35 C20.62710658 37.41807105 23.32570327 37.30616929 27.51953125 37.30078125 C28.62381721 37.30720894 28.62381721 37.30720894 29.75041199 37.31376648 C31.30796278 37.31950652 32.86554038 37.32001242 34.4230957 37.31567383 C36.793604 37.3125251 39.16285014 37.33593589 41.53320312 37.36132812 C43.0494776 37.36360245 44.56575541 37.36430399 46.08203125 37.36328125 C46.78536087 37.372491 47.48869049 37.38170074 48.21333313 37.39118958 C52.8697943 37.3479366 56.03471075 36.42819324 60 34 C62.62998478 30.65274664 62.43342998 27.1175848 62 23 C59.9029767 19.62978398 57.88046613 17.10870461 54 16 C49.67390231 16.07865632 47.59113772 16.52708982 44.1875 19.25 C41.65877439 22.15863998 41.65877439 22.15863998 40 27 C35.05 27 30.1 27 25 27 C25.24622425 19.36704831 27.12894093 13.9647688 32 8 C38.39090127 2.55257097 44.88204229 -0.51322518 53.3125 -0.3125 C61.05266354 0.58751902 67.81969993 4.21187805 73 10 C75.23894831 13.1092605 76.80653348 16.14599986 77.66015625 19.9140625 C79.51545541 24.18720051 82.20523823 25.59120482 86.125 27.875 C88.39375 29.23625 90.6625 30.5975 93 32 C93.33 21.44 93.66 10.88 94 0 C98.95 0 103.9 0 109 0 C109 17.49 109 34.98 109 53 C97.32205544 53 93.74696789 52.7808605 85.1875 46.5 C84.29224609 45.87996094 83.39699219 45.25992188 82.47460938 44.62109375 C80.2960078 43.10655789 78.14061169 41.56753707 76 40 C74.85144531 41.15628906 74.85144531 41.15628906 73.6796875 42.3359375 C65.64534509 50.32343243 59.54743003 53.46613391 48.41015625 53.46875 C47.50680038 53.47636353 46.60344452 53.48397705 45.67271423 53.49182129 C43.77085114 53.50257933 41.86892917 53.50549296 39.96704102 53.50097656 C37.07402126 53.50000387 34.1836535 53.54168125 31.29101562 53.5859375 C29.43490131 53.5911452 27.57877787 53.59383268 25.72265625 53.59375 C24.86720718 53.61014526 24.01175812 53.62654053 23.13038635 53.64343262 C16.22566961 53.56485444 11.52393769 51.32280142 6.50746155 46.59265137 C1.01453937 40.48512895 -0.46064435 34.55944917 -0.29296875 26.66015625 C-0.28872391 25.89319931 -0.28447906 25.12624237 -0.28010559 24.33604431 C-0.2634507 21.91115668 -0.22582553 19.48713202 -0.1875 17.0625 C-0.17243601 15.40821522 -0.15875062 13.75391727 -0.14648438 12.09960938 C-0.11615509 8.06581466 -0.05741395 4.0338614 0 0 Z " fill="#FA4F00" transform="translate(119,396)"/>
<path d="M0 0 C7.81622498 5.15291869 13.15473923 12.19719519 15.109375 21.390625 C15.19365982 22.97835806 15.22717448 24.56921682 15.22290039 26.15917969 C15.22282486 27.09985291 15.22274933 28.04052612 15.22267151 29.00970459 C15.21751022 30.01712708 15.21234894 31.02454956 15.20703125 32.0625 C15.2056163 33.10005432 15.20420135 34.13760864 15.20274353 35.206604 C15.19714947 38.51797376 15.18459803 41.82927571 15.171875 45.140625 C15.16685923 47.38671777 15.16229646 49.63281161 15.15820312 51.87890625 C15.14803322 57.38285959 15.12845652 62.88666646 15.109375 68.390625 C7.519375 68.390625 -0.070625 68.390625 -7.890625 68.390625 C-7.90480469 65.41675781 -7.91898437 62.44289063 -7.93359375 59.37890625 C-7.96422385 56.49280505 -8.00331011 53.60693339 -8.04321289 50.72094727 C-8.06638311 48.71810039 -8.08078632 46.71513183 -8.08618164 44.7121582 C-8.09547833 41.82947046 -8.13648406 38.94869381 -8.18359375 36.06640625 C-8.1796611 35.17351395 -8.17572845 34.28062164 -8.17167664 33.360672 C-8.27553425 28.91678548 -8.46930281 26.95290571 -11.20825195 23.29760742 C-13.83590026 21.0684211 -13.83590026 21.0684211 -17.515625 21.203125 C-21.02956879 22.06233126 -21.02956879 22.06233126 -22.56958008 24.88134766 C-24.22791458 29.28661474 -24.36700827 33.05943835 -24.40234375 37.7265625 C-24.42029495 38.60591461 -24.43824615 39.48526672 -24.45674133 40.39126587 C-24.51065312 43.18267105 -24.54467829 45.97390711 -24.578125 48.765625 C-24.611315 50.66538802 -24.64580621 52.56512877 -24.68164062 54.46484375 C-24.76880386 59.10679259 -24.82903463 63.74798551 -24.890625 68.390625 C-32.480625 68.390625 -40.070625 68.390625 -47.890625 68.390625 C-47.98292036 62.04019136 -48.0624191 55.69212499 -48.11035156 49.34155273 C-48.13035191 47.18554763 -48.15756124 45.02959596 -48.19238281 42.8737793 C-48.24141353 39.75816588 -48.26371014 36.64327529 -48.28125 33.52734375 C-48.30189514 32.57792404 -48.32254028 31.62850433 -48.34381104 30.65031433 C-48.34716678 20.43032299 -45.33603034 11.66930342 -38.125 4.33984375 C-28.07265433 -4.42959766 -12.10485854 -5.9272066 0 0 Z " fill="#FD5000" transform="translate(372.890625,300.609375)"/>
<path d="M0 0 C4.95 0 9.9 0 15 0 C15.06058594 2.41957031 15.12117188 4.83914063 15.18359375 7.33203125 C15.24540118 9.67524282 15.30878139 12.01840693 15.37231445 14.36157227 C15.41562749 15.99011004 15.45730518 17.61869216 15.49731445 19.24731445 C15.55510503 21.58818935 15.61877398 23.92884176 15.68359375 26.26953125 C15.70030624 26.99775589 15.71701874 27.72598053 15.73423767 28.47627258 C15.82467238 31.56166939 16.01723993 34.05171978 17 37 C22.78406969 37.07410115 28.56786371 37.12857885 34.35229492 37.16479492 C36.32044283 37.17989082 38.28855706 37.20036948 40.2565918 37.22631836 C43.08390612 37.26266649 45.9107761 37.27971814 48.73828125 37.29296875 C50.06029289 37.31619453 50.06029289 37.31619453 51.40901184 37.33988953 C52.6399482 37.34022942 52.6399482 37.34022942 53.89575195 37.34057617 C54.61745071 37.34723801 55.33914948 37.35389984 56.0827179 37.36076355 C58.46499276 37.09916167 58.46499276 37.09916167 61 34 C61.33 31.03 61.66 28.06 62 25 C54.74 25 47.48 25 40 25 C40 16.75 40 8.5 40 0 C45.28 0 50.56 0 56 0 C56 3.3 56 6.6 56 10 C62.93 10 69.86 10 77 10 C77.13592654 14.12612567 77.23458442 18.24770048 77.3125 22.375 C77.35439453 23.53128906 77.39628906 24.68757813 77.43945312 25.87890625 C77.54881926 33.62202867 76.61043972 39.61812099 72 46 C66.44106549 51.19005559 61.76853507 53.35455198 54.14453125 53.29296875 C51.05745523 52.87123705 49.9351374 51.3498097 48 49 C43.44024296 46.31778998 38.12566113 46.0805989 33 47 C30.62692501 48.30749243 30.62692501 48.30749243 28.4375 50 C24.60083997 52.8437216 21.9909842 53.8749936 17.203125 53.5234375 C11.11504034 52.07697767 6.34815866 48.20824681 3 43 C0.25228717 37.58276645 -0.41720457 33.46973239 -0.29296875 27.44140625 C-0.28872391 26.65225327 -0.28447906 25.86310028 -0.28010559 25.05003357 C-0.26344452 22.55382739 -0.22581779 20.05845808 -0.1875 17.5625 C-0.17243683 15.86003778 -0.15875129 14.15756279 -0.14648438 12.45507812 C-0.1135825 8.3030678 -0.06188951 4.1516753 0 0 Z " fill="#F74E00" transform="translate(262,396)"/>
<path d="M0 0 C6.55848237 3.63556818 11.49190376 8.80075493 13.8125 16 C14.92401232 24.2719917 13.81703226 31.222778 8.8125 38 C3.14929141 43.60506476 -2.6312311 46.02589325 -10.5625 46.375 C-17.05252089 46.21670681 -21.40071593 44.63538937 -26.12890625 40.1640625 C-31.91845601 33.8547828 -34.86996653 28.58099573 -34.59765625 19.87890625 C-33.55451603 12.5570554 -29.85342438 6.63012647 -23.99609375 2.18359375 C-16.21480521 -2.90869659 -8.49408414 -3.82104697 0 0 Z " fill="#FA4F00" transform="translate(379.1875,398)"/>
<path d="M0 0 C0 7.92 0 15.84 0 24 C-2.64 24.66 -5.28 25.32 -8 26 C-10.05359902 29.08039853 -10.25738734 29.79484698 -10.31884766 33.2878418 C-10.33871735 34.14850754 -10.35858704 35.00917328 -10.37905884 35.8959198 C-10.39638565 37.28355278 -10.39638565 37.28355278 -10.4140625 38.69921875 C-10.43342865 39.64940384 -10.4527948 40.59958893 -10.4727478 41.5785675 C-10.53254912 44.6147869 -10.57893129 47.65104419 -10.625 50.6875 C-10.66317926 52.74545928 -10.70223096 54.80340258 -10.7421875 56.86132812 C-10.83989414 61.90746911 -10.91945849 66.95343885 -11 72 C-18.92 72 -26.84 72 -35 72 C-35.0923128 65.79196395 -35.17180547 59.58635182 -35.21972656 53.37817383 C-35.23972278 51.27066943 -35.26692893 49.16321966 -35.30175781 47.0559082 C-35.72570751 20.72738524 -35.72570751 20.72738524 -26.828125 9.78515625 C-19.08041547 2.219551 -10.57636734 0 0 0 Z " fill="#F94F00" transform="translate(242,297)"/>
<path d="M0 0 C5.3369252 3.00977758 9.24626731 7.54829354 11.578125 13.19921875 C12.68148741 19.64964514 12.27757635 25.74568625 8.91015625 31.4453125 C4.65301731 37.05075351 1.64975105 39.02061441 -5.421875 40.19921875 C-5.421875 52.07921875 -5.421875 63.95921875 -5.421875 76.19921875 C-7.731875 76.19921875 -10.041875 76.19921875 -12.421875 76.19921875 C-12.421875 64.31921875 -12.421875 52.43921875 -12.421875 40.19921875 C-14.401875 39.86921875 -16.381875 39.53921875 -18.421875 39.19921875 C-24.75931138 35.96583284 -28.21023289 30.83414507 -30.421875 24.19921875 C-31.2031859 17.70537241 -30.31842362 12.52054415 -26.421875 7.19921875 C-19.05105994 -0.46820858 -10.61446969 -3.50962304 0 0 Z " fill="#F94F00" transform="translate(265.421875,39.80078125)"/>
<path d="M0 0 C5.55778325 2.56594974 8.78119842 6.30292498 11.8515625 11.56640625 C13.88768912 19.71091275 12.22906224 25.24640704 9.5390625 33.31640625 C17.1290625 40.90640625 24.7190625 48.49640625 32.5390625 56.31640625 C31.8790625 57.63640625 31.2190625 58.95640625 30.5390625 60.31640625 C26.5390625 60.31640625 26.5390625 60.31640625 24.06542969 58.296875 C23.16469727 57.37519531 22.26396484 56.45351562 21.3359375 55.50390625 C20.8532843 55.01559326 20.3706311 54.52728027 19.87335205 54.02416992 C18.3356101 52.46405696 16.81236247 50.89061095 15.2890625 49.31640625 C14.24832163 48.25560134 13.20666513 47.19569391 12.1640625 46.13671875 C9.61169345 43.5402736 7.07214285 40.93168841 4.5390625 38.31640625 C0.45941969 39.61795631 0.45941969 39.61795631 -3.4609375 41.31640625 C-10.2880914 42.09048875 -15.84872815 41.42319464 -21.4609375 37.31640625 C-27.09085505 32.14939303 -29.46208934 27.0936108 -29.8359375 19.44140625 C-29.69714845 14.30621152 -28.63008396 10.40478028 -25.4609375 6.31640625 C-17.88445862 -0.55632854 -10.20672367 -2.83520102 0 0 Z " fill="#FA4F00" transform="translate(199.4609375,66.68359375)"/>
<path d="M0 0 C5.21625881 3.04281764 9.62755467 7.27328901 11.5625 13.078125 C12.19833951 20.79158786 12.4890776 26.88832238 7.5625 33.078125 C2.51271612 38.33576923 -1.8695416 40.78566939 -9.25 41.390625 C-13.4375 41.078125 -13.4375 41.078125 -22.4375 38.078125 C-30.0275 45.668125 -37.6175 53.258125 -45.4375 61.078125 C-47.0875 60.088125 -48.7375 59.098125 -50.4375 58.078125 C-48.87467018 54.31208631 -46.5311525 51.94173349 -43.6484375 49.09375 C-43.18515045 48.63329285 -42.7218634 48.17283569 -42.24453735 47.69842529 C-40.77184102 46.23687422 -39.29232597 44.78245332 -37.8125 43.328125 C-36.80943678 42.33509889 -35.80682743 41.34161411 -34.8046875 40.34765625 C-32.35419165 37.91914559 -29.8975333 35.49697825 -27.4375 33.078125 C-27.91993164 31.4528186 -27.91993164 31.4528186 -28.41210938 29.79467773 C-30.19279745 23.34053141 -31.04787793 15.87909056 -28.375 9.5703125 C-26.88928162 7.44670416 -25.36951693 5.80239818 -23.4375 4.078125 C-22.86902344 3.55347656 -22.30054688 3.02882813 -21.71484375 2.48828125 C-15.54429712 -2.24116107 -7.19510743 -2.72122653 0 0 Z " fill="#FB4F00" transform="translate(330.4375,66.921875)"/>
<path d="M0 0 C2.475 2.475 2.475 2.475 5 5 C-2.26 12.26 -9.52 19.52 -17 27 C-16.01 29.31 -15.02 31.62 -14 34 C-13.05146543 40.1441113 -13.52941987 45.78897679 -16.66015625 51.21484375 C-19.86444543 55.48411534 -24.03151545 58.99628634 -29 61 C-35.87408261 61.93291121 -41.63324758 61.66689419 -47.31640625 57.49609375 C-51.72720393 53.57652179 -55.55658615 49.26725996 -56.37109375 43.265625 C-56.52852672 36.11631609 -55.80984861 31.42681872 -51 26 C-45.43888417 20.30786312 -40.53872278 18.80098433 -32.79296875 18.63671875 C-30 19 -30 19 -22 22 C-14.74 14.74 -7.48 7.48 0 0 Z " fill="#FB4F00" transform="translate(226,177)"/>
<path d="M0 0 C3.61049852 1.30533408 5.88407618 3.65277991 8.546875 6.3515625 C9.39121094 7.20234375 10.23554688 8.053125 11.10546875 8.9296875 C12.41451172 10.26386719 12.41451172 10.26386719 13.75 11.625 C14.63816406 12.5221875 15.52632813 13.419375 16.44140625 14.34375 C18.63216969 16.55807004 20.81812763 18.77692435 23 21 C27.07964281 19.69844994 27.07964281 19.69844994 31 18 C38.50232649 17.19062038 44.42900998 18.7275518 50.75 22.75 C55.76717392 27.76717392 57.26402486 31.4070683 57.5 38.4375 C57.29238953 44.09488529 56.64806312 48.55360728 53 53 C47.17450229 58.34492345 42.52389368 60.33344298 34.62890625 60.20703125 C28.83897487 59.7510634 24.67107709 58.09949451 20.6875 53.8125 C15.89632563 47.55517392 14.51990504 42.30477236 15.48046875 34.4921875 C16.08984111 31.56903289 17.03905588 28.82487989 18 26 C17.35861084 25.38479492 16.71722168 24.76958984 16.05639648 24.13574219 C13.68514658 21.84964945 11.32553024 19.55274874 8.97290039 17.24755859 C7.95195202 16.25177273 6.92656378 15.26051809 5.89672852 14.27392578 C4.41796177 12.85573503 2.95587585 11.42206754 1.49609375 9.984375 C0.61107178 9.12553711 -0.2739502 8.26669922 -1.18579102 7.38183594 C-3 5 -3 5 -2.90600586 2.75097656 C-2 1 -2 1 0 0 Z " fill="#FA4F00" transform="translate(285,178)"/>
<path d="M0 0 C4.63648747 2.7210274 8.82903849 6.52030681 11.6484375 11.125 C12.1434375 13.6 12.1434375 13.6 12.6484375 16.125 C23.8684375 16.455 35.0884375 16.785 46.6484375 17.125 C46.6484375 19.105 46.6484375 21.085 46.6484375 23.125 C35.4284375 23.455 24.2084375 23.785 12.6484375 24.125 C11.6584375 26.765 10.6684375 29.405 9.6484375 32.125 C5.62893378 36.95176807 0.71838401 40.67907543 -5.59765625 41.37109375 C-11.72037081 41.67862736 -16.36636882 40.78366145 -21.3515625 37.125 C-25.82226712 32.93247255 -28.84371525 28.70131382 -29.72265625 22.51171875 C-29.89056749 15.68662061 -28.87463915 11.32122383 -24.3515625 6.125 C-17.58321089 -0.66066197 -9.36570937 -3.48491511 0 0 Z " fill="#FC5000" transform="translate(172.3515625,131.875)"/>
<path d="M0 0 C3.97680736 2.88739243 6.91062073 6.71373122 8.75390625 11.2734375 C9.50598244 17.88471196 9.6878419 24.6846151 6.23046875 30.5546875 C2.32731154 35.0980451 -3.42317218 38.85923108 -9.4453125 39.51171875 C-15.58679604 39.69490272 -20.28225316 39.07869431 -25.24609375 35.2734375 C-29.7334279 30.67856375 -31.16270906 27.77374567 -32.24609375 21.2734375 C-43.46609375 21.2734375 -54.68609375 21.2734375 -66.24609375 21.2734375 C-66.24609375 19.2934375 -66.24609375 17.3134375 -66.24609375 15.2734375 C-55.02609375 15.2734375 -43.80609375 15.2734375 -32.24609375 15.2734375 C-31.91609375 13.2934375 -31.58609375 11.3134375 -31.24609375 9.2734375 C-28.29550443 4.004528 -25.05157036 0.57831034 -19.55859375 -1.9765625 C-12.55603826 -3.56204676 -6.34680656 -3.61575646 0 0 Z " fill="#FC5000" transform="translate(360.24609375,133.7265625)"/>
<path d="M0 0 C0.68707031 0.42152344 1.37414062 0.84304688 2.08203125 1.27734375 C2.98308594 1.82519531 3.88414062 2.37304688 4.8125 2.9375 C5.70582031 3.48277344 6.59914063 4.02804687 7.51953125 4.58984375 C11.8517295 7.05271551 15.02909955 7.0765834 19.94140625 6.95703125 C21.34438646 6.93461513 22.74738234 6.91316282 24.15039062 6.89257812 C26.34687404 6.85574648 28.54254212 6.81304412 30.73852539 6.75317383 C41.89062161 6.46372239 51.03877221 7.33523257 60.125 14.5 C60.87007813 15.0671875 61.61515625 15.634375 62.3828125 16.21875 C64 18 64 18 64 22 C62.25 24.359375 62.25 24.359375 60 26.75 C59.2575 27.54921875 58.515 28.3484375 57.75 29.171875 C57.1725 29.77515625 56.595 30.3784375 56 31 C55.25234375 30.50628906 54.5046875 30.01257813 53.734375 29.50390625 C52.74953125 28.86324219 51.7646875 28.22257812 50.75 27.5625 C49.77546875 26.92441406 48.8009375 26.28632813 47.796875 25.62890625 C43.53834648 23.14872972 40.32759964 22.86169361 35.4375 22.875 C34.48746094 22.87242187 33.53742188 22.86984375 32.55859375 22.8671875 C29.8787562 22.89229006 29.8787562 22.89229006 27 24 C14.13928121 25.12878251 4.29911674 22.06857133 -6.234375 14.78125 C-8 13 -8 13 -8 9 C-6.25 6.640625 -6.25 6.640625 -4 4.25 C-3.2575 3.45078125 -2.515 2.6515625 -1.75 1.828125 C-1.1725 1.22484375 -0.595 0.6215625 0 0 Z " fill="#F84F00" transform="translate(341,442)"/>
<path d="M0 0 C5.28 0 10.56 0 16 0 C16 17.49 16 34.98 16 53 C10.72 53 5.44 53 0 53 C0 35.51 0 18.02 0 0 Z " fill="#ED4B00" transform="translate(237,396)"/>
<path d="M0 0 C4.21968485 3.54837135 5.57339482 5.72305335 6.1875 11.25 C6.01839443 15.50984994 4.53860181 18.05913122 1.75 21.3125 C-2.6650729 24.06133003 -7.20364347 23.97498765 -12.25 23.3125 C-15.40460202 21.53803637 -16.75737276 20.15700384 -18.5625 17.0625 C-19.64468367 12.73376533 -20.48943044 8.5592763 -18.26953125 4.53515625 C-13.26887393 -1.75797866 -7.44914523 -3.86782541 0 0 Z " fill="#F84F00" transform="translate(307.25,448.6875)"/>
<path d="M0 0 C3.58100993 1.35282597 4.73876692 2.59463832 6.8125 5.8125 C9.01267736 11.5230727 8.17085074 18.02022421 8 24 C0.41 24 -7.18 24 -15 24 C-15.103125 21.31875 -15.20625 18.6375 -15.3125 15.875 C-15.35802002 15.04210449 -15.40354004 14.20920898 -15.45043945 13.35107422 C-15.52591463 9.2695712 -15.23080751 6.73380717 -12.60546875 3.5078125 C-8.60808286 -0.33974633 -5.40226944 -0.55061592 0 0 Z " fill="#040100" transform="translate(90,296)"/>
<path d="M0 0 C4.67245167 1.08495912 6.73866363 3.68612045 9.3046875 7.53515625 C10.04449864 12.53318266 9.82271983 16.49909158 7.5546875 21.03515625 C4.1214051 24.84991447 2.5623497 25.39316213 -2.5703125 25.97265625 C-7.40081144 25.85549863 -9.41374519 23.97298867 -12.6953125 20.53515625 C-14.92047517 17.60198728 -15.30868918 14.37729713 -15.19140625 10.70703125 C-13.41133698 2.91397208 -7.62336535 -0.63721139 0 0 Z " fill="#040100" transform="translate(285.6953125,321.46484375)"/>
<path d="M0 0 C4.99503071 0.4913145 6.31841769 1.88091769 9.8125 5.375 C11.5716705 8.89334101 10.7511806 12.65332974 9.8125 16.375 C7.62908513 19.17250031 6.13739312 20.12538246 2.65625 20.78125 C-1.50827664 21.05888511 -3.66990291 20.70245938 -7.25 18.4375 C-9.50751915 14.86916328 -9.90613669 12.68732312 -9.69140625 8.53125 C-8.89250939 5.1127146 -6.88145048 3.47759549 -4.1875 1.375 C-3.1875 0.375 -3.1875 0.375 0 0 Z " fill="#F74E00" transform="translate(196.1875,116.625)"/>
<path d="M0 0 C3.23929605 2.36569115 4.81751169 5.02672899 5.5625 9 C4.85564296 12.76990419 3.364441 15.00967755 1 18 C-2.49202465 19.74601232 -6.18982279 19.55838804 -10 19 C-13.0625 17.0625 -13.0625 17.0625 -15 14 C-15.69022545 10.84549858 -15.73034598 8.14961704 -15 5 C-10.61554899 -0.53825391 -6.85558636 -2.12352771 0 0 Z " fill="#F64E00" transform="translate(237,83)"/>
<path d="M0 0 C2.87029869 1.79393668 4.49131638 2.98263276 6 6 C6.12272016 10.5406461 5.86358012 13.98402339 2.875 17.5 C-0.58462207 19.30502021 -3.09373338 19.93024524 -7 20 C-10.57387602 18.41161066 -11.81089572 17.28365642 -14 14 C-14.82989594 9.33511124 -14.61181179 5.96705735 -12.0625 1.9375 C-7.95859581 -0.65884755 -4.73725096 -0.95259938 0 0 Z " fill="#F84E00" transform="translate(320,167)"/>
<path d="M0 0 C4.99503071 0.4913145 6.31841769 1.88091769 9.8125 5.375 C11.36274464 8.47548928 11.10242015 10.95394218 10.8125 14.375 C9.01687595 17.12829021 7.75995078 18.90127461 4.8125 20.375 C1.7296447 20.85347852 -1.11097221 20.9213489 -4.1875 20.375 C-7.36207096 17.7835135 -8.73330349 16.30064305 -9.66015625 12.37109375 C-9.96036653 8.31440613 -9.33871947 6.55723885 -6.75 3.4375 C-5.904375 2.756875 -5.05875 2.07625 -4.1875 1.375 C-3.1875 0.375 -3.1875 0.375 0 0 Z " fill="#F84E00" transform="translate(315.1875,116.625)"/>
<path d="M0 0 C2.70567626 1.82339052 4.53728718 3.07457436 6 6 C6.12150428 10.49565838 5.80266747 13.9715823 3 17.5625 C-1.1168742 19.53516889 -4.5201173 19.90731802 -9 19 C-12.0625 17.0625 -12.0625 17.0625 -14 14 C-14.69022545 10.84549858 -14.73034598 8.14961704 -14 5 C-9.54542867 -0.62682695 -6.93538616 -1.52813593 0 0 Z " fill="#F84E00" transform="translate(285,83)"/>
<path d="M0 0 C3.125 2 3.125 2 5 5 C5.62765226 8.95420925 5.9698237 11.34559486 3.9375 14.8125 C1.281069 18.10141457 -0.56430975 19.80422406 -4.75 20.375 C-9.2753858 19.8528401 -10.7671103 18.15770622 -14 15 C-15.61827917 11.76344166 -15.56192191 8.49863286 -15 5 C-11.33963958 -0.85657668 -6.37321962 -1.27464392 0 0 Z " fill="#F84F00" transform="translate(202,167)"/>
<path d="M0 0 C4.23300122 0.16280774 6.50968268 0.63487008 9.9375 3.1875 C12 6 12 6 12.5625 9 C11.87642343 12.65907504 10.57265686 14.35167676 8 17 C5.14675563 18.42662219 3.16545451 18.31033868 0 18 C-2.90374964 16.45133352 -4.52463698 15.25800491 -5.70703125 12.12890625 C-6.15206542 9.9286906 -6.31787314 8.22511201 -6 6 C-3.625 3.0625 -3.625 3.0625 -1 1 C-0.67 0.67 -0.34 0.34 0 0 Z " fill="#0A0300" transform="translate(366,411)"/>
<path d="M0 0 C0 2.64 0 5.28 0 8 C-2.62187494 6.95125002 -3.79371361 6.35068687 -5.25 3.875 C-5.4975 3.25625 -5.745 2.6375 -6 2 C-3 0 -3 0 0 0 Z " fill="#1F0900" transform="translate(253,135)"/>
</svg>
