<?xml version="1.0" encoding="UTF-8"?>
<svg version="1.1" xmlns="http://www.w3.org/2000/svg" width="697" height="508">
<path d="M0 0 C230.01 0 460.02 0 697 0 C697 167.64 697 335.28 697 508 C466.99 508 236.98 508 0 508 C0 340.36 0 172.72 0 0 Z " fill="#FEFEFE" transform="translate(0,0)"/>
<path d="M0 0 C10.20566416 8.09393483 19.18594388 18.41686732 23 31.0625 C23.680625 31.09988281 24.36125 31.13726562 25.0625 31.17578125 C58.30909162 33.4305368 86.13497411 47.96152677 109 72.0625 C109.50660156 72.58585937 110.01320313 73.10921875 110.53515625 73.6484375 C123.65516109 87.81445639 131.9245748 105.62368934 137 124.0625 C137.17966309 124.70219727 137.35932617 125.34189453 137.54443359 126.00097656 C145.67223486 156.30980968 139.25598041 190.14450866 124.13476562 217.13037109 C114.81685521 232.99567725 100.94116973 248.72273491 85 258.0625 C84.43087891 258.40635742 83.86175781 258.75021484 83.27539062 259.10449219 C81.37854661 260.24947834 79.4734061 261.37865189 77.5625 262.5 C76.95833252 262.85521729 76.35416504 263.21043457 75.73168945 263.57641602 C72.92911542 265.16957065 71.27983552 266.0625 68 266.0625 C67.34 262.7625 66.68 259.4625 66 256.0625 C67.43279297 255.24458984 67.43279297 255.24458984 68.89453125 254.41015625 C78.08580143 249.08048369 86.75276837 243.51698315 94.17578125 235.80078125 C96 234.0625 96 234.0625 98 234.0625 C98.26554687 233.47339844 98.53109375 232.88429688 98.8046875 232.27734375 C100.03136826 230.00437646 101.3441234 228.48456649 103.125 226.625 C117.61439817 210.33194231 125.53557708 188.60676728 128.25 167.3125 C128.8275 162.94 129.405 158.5675 130 154.0625 C112.84 154.0625 95.68 154.0625 78 154.0625 C78 178.4825 78 202.9025 78 228.0625 C74.37 228.0625 70.74 228.0625 67 228.0625 C67 203.6425 67 179.2225 67 154.0625 C55.45 154.0625 43.9 154.0625 32 154.0625 C32 178.4825 32 202.9025 32 228.0625 C28.7 228.0625 25.4 228.0625 22 228.0625 C21.505 153.8125 21.505 153.8125 21 78.0625 C18.03 81.0325 15.06 84.0025 12 87.0625 C8.0625 90.5 8.0625 90.5 6.09765625 92.18359375 C2.73664169 95.19411145 -0.38453838 98.4395098 -3.5546875 101.6484375 C-6.28299683 104.34188026 -9.12962476 106.83981255 -12.046875 109.32421875 C-14.96299129 111.91956225 -17.64447958 114.73309908 -20.3359375 117.55859375 C-22 119.0625 -22 119.0625 -24 119.0625 C-24.25394531 119.65417969 -24.50789062 120.24585938 -24.76953125 120.85546875 C-26.13553212 123.3055973 -27.52936211 124.5984582 -29.6875 126.375 C-31.14454646 127.58093224 -32.57849749 128.81486722 -34 130.0625 C-34.57118844 130.5285241 -35.14237688 130.99454821 -35.73087406 131.47469425 C-39.13523223 134.4844787 -41.40163777 136.72099523 -41.87974548 141.35899353 C-41.91735861 142.97579091 -41.917445 144.5937551 -41.88647461 146.21069336 C-41.89725037 147.09929047 -41.90802612 147.98788757 -41.91912842 148.90341187 C-41.94638815 151.82058076 -41.92469542 154.73516925 -41.90234375 157.65234375 C-41.91173249 159.68259784 -41.92419253 161.71283985 -41.93959045 163.74305725 C-41.97178482 169.07141217 -41.96238518 174.39890546 -41.94421387 179.72729492 C-41.93304727 185.17050568 -41.96136783 190.61349685 -41.98632812 196.05664062 C-42.02945037 206.72541415 -42.02861627 217.39369452 -42 228.0625 C-45.63 228.0625 -49.26 228.0625 -53 228.0625 C-52.99476318 226.96748672 -52.98952637 225.87247345 -52.98413086 224.74427795 C-52.93989603 214.4013972 -52.93786182 204.0592446 -52.97665405 193.71633244 C-52.99525285 188.39938131 -52.99922243 183.08327415 -52.96923828 177.76635742 C-52.9408227 172.63061026 -52.95151588 167.4962694 -52.98880005 162.3605938 C-52.99622012 160.40590131 -52.98978411 158.45110332 -52.96896362 156.49650764 C-52.4623617 144.12973189 -52.4623617 144.12973189 -57.83984375 133.48217773 C-59.88469053 131.61031026 -59.88469053 131.61031026 -62 130.0625 C-63.18914074 129.04357839 -64.3769452 128.02309177 -65.5625 127 C-66.13226563 126.53335938 -66.70203125 126.06671875 -67.2890625 125.5859375 C-69.19235262 123.89122712 -70.79112098 122.06936617 -72.4375 120.125 C-74.79698357 117.34323749 -77.21516289 114.91807513 -80 112.5625 C-82.718442 110.26067746 -85.08114057 107.91213115 -87.375 105.1875 C-90.83054252 101.10583854 -94.69995413 97.63379052 -98.703125 94.09765625 C-102.06548752 91.11842007 -105.18401997 88.11537746 -107.9375 84.5625 C-110.41342089 81.40420041 -110.41342089 81.40420041 -116 77.0625 C-116.33 126.8925 -116.66 176.7225 -117 228.0625 C-120.63 228.0625 -124.26 228.0625 -128 228.0625 C-128 203.3125 -128 178.5625 -128 153.0625 C-138.56 153.0625 -149.12 153.0625 -160 153.0625 C-160 177.8125 -160 202.5625 -160 228.0625 C-163.63 228.0625 -167.26 228.0625 -171 228.0625 C-171 203.3125 -171 178.5625 -171 153.0625 C-188.82 153.0625 -206.64 153.0625 -225 153.0625 C-219.65252904 177.66086642 -213.95251374 196.11676407 -198 215.0625 C-197.32324219 215.87332031 -196.64648438 216.68414062 -195.94921875 217.51953125 C-178.87103563 237.26712843 -153.54153564 251.04406706 -127.38818359 253.91235352 C-121.76653194 254.26579001 -116.12985862 254.16218911 -110.5 254.125 C-109.200625 254.12048828 -107.90125 254.11597656 -106.5625 254.11132812 C-103.37495175 254.0996092 -100.18750045 254.08320219 -97 254.0625 C-96.49384702 255.33089526 -95.99530901 256.60233102 -95.5 257.875 C-95.08234375 258.93654297 -95.08234375 258.93654297 -94.65625 260.01953125 C-94 262.0625 -94 262.0625 -94 265.0625 C-107.44978472 267.32524978 -121.6642631 266.68175248 -135 264.0625 C-135.98299072 263.8771167 -135.98299072 263.8771167 -136.98583984 263.68798828 C-148.02707112 261.55822073 -157.92369667 258.02694975 -168 253.0625 C-169.51400391 252.31806641 -169.51400391 252.31806641 -171.05859375 251.55859375 C-196.68422361 238.21872686 -215.13773977 216.03934836 -227 190.0625 C-227.36609375 189.29421875 -227.7321875 188.5259375 -228.109375 187.734375 C-240.1783188 160.4399944 -239.18856854 125.70234445 -228.72265625 98.29296875 C-221.9482241 81.31198579 -212.33671672 64.71108233 -198 53.0625 C-197.2575 52.299375 -196.515 51.53625 -195.75 50.75 C-189.14309206 44.29324906 -181.9331983 39.24295372 -174 34.5625 C-173.24557617 34.11688721 -172.49115234 33.67127441 -171.71386719 33.2121582 C-166.26427204 30.0625 -166.26427204 30.0625 -164 30.0625 C-161.28741988 37.35255907 -161.28741988 37.35255907 -162 41.0625 C-164.29922272 42.77005607 -166.36695483 44.05387503 -168.875 45.375 C-175.45938998 49.06828444 -181.23843335 53.16298594 -187 58.0625 C-188.010625 58.825625 -189.02125 59.58875 -190.0625 60.375 C-213.97745553 82.25464016 -221.93489495 111.89669465 -226 143.0625 C-207.85 143.0625 -189.7 143.0625 -171 143.0625 C-171 117.3225 -171 91.5825 -171 65.0625 C-167.37 65.0625 -163.74 65.0625 -160 65.0625 C-160 90.8025 -160 116.5425 -160 143.0625 C-149.44 143.0625 -138.88 143.0625 -128 143.0625 C-128.0314209 139.32583008 -128.0314209 139.32583008 -128.06347656 135.51367188 C-128.13016705 127.22372611 -128.17410184 118.93376757 -128.20724869 110.64362335 C-128.22800096 105.62408597 -128.25608877 100.60482664 -128.30175781 95.58544922 C-128.34566148 90.72894106 -128.36922967 85.87269799 -128.37950897 81.01600647 C-128.38682135 79.17590673 -128.40109703 77.33581921 -128.42292023 75.49583435 C-128.71603868 49.72461197 -121.21415407 26.21027264 -103.22265625 7.29296875 C-102.48917969 6.55691406 -101.75570312 5.82085937 -101 5.0625 C-100.33871094 4.37800781 -99.67742187 3.69351563 -98.99609375 2.98828125 C-90.4710517 -5.24558289 -78.58053681 -12.18128778 -67 -14.9375 C-66.29746094 -15.13859375 -65.59492188 -15.3396875 -64.87109375 -15.546875 C-41.88650833 -21.30274411 -18.44187802 -14.00241699 0 0 Z " fill="#222222" transform="translate(389,125.9375)"/>
<path d="M0 0 C15.50910656 14.15863234 23.25316872 32.23003841 26.68505859 52.66333008 C26.68505859 53.32333008 26.68505859 53.98333008 26.68505859 54.66333008 C29.65505859 54.66333008 32.62505859 54.66333008 35.68505859 54.66333008 C34.54870313 46.95061961 33.30346494 39.29050041 31.68505859 31.66333008 C38.9298119 32.26705952 45.68764603 33.70582606 52.68505859 35.66333008 C53.62091797 35.91727539 54.55677734 36.1712207 55.52099609 36.43286133 C79.52650258 43.63451327 102.62253988 61.21929209 115.68505859 82.66333008 C116.35150391 83.74356445 117.01794922 84.82379883 117.70458984 85.93676758 C126.43710074 100.4382859 132.68505859 116.60432864 132.68505859 133.66333008 C115.85505859 133.66333008 99.02505859 133.66333008 81.68505859 133.66333008 C81.68505859 107.59333008 81.68505859 81.52333008 81.68505859 54.66333008 C78.05505859 54.66333008 74.42505859 54.66333008 70.68505859 54.66333008 C70.68505859 80.73333008 70.68505859 106.80333008 70.68505859 133.66333008 C59.13505859 133.66333008 47.58505859 133.66333008 35.68505859 133.66333008 C35.68505859 107.92333008 35.68505859 82.18333008 35.68505859 55.66333008 C30.07505859 55.66333008 24.46505859 55.66333008 18.68505859 55.66333008 C18.68505859 56.32333008 18.68505859 56.98333008 18.68505859 57.66333008 C17.28662109 59.03833008 17.28662109 59.03833008 15.31005859 60.66333008 C10.14785763 65.05301857 5.43771694 69.83866175 0.68505859 74.66333008 C-8.80027677 84.29238264 -8.80027677 84.29238264 -13.28759766 88.13598633 C-18.38752687 92.50753742 -23.04021579 97.3197626 -27.75244141 102.10083008 C-29.54053566 103.9142694 -31.33077498 105.72559709 -33.12353516 107.53442383 C-33.905271 108.32776123 -34.68700684 109.12109863 -35.49243164 109.93847656 C-37.31494141 111.66333008 -37.31494141 111.66333008 -38.31494141 111.66333008 C-38.31494141 96.15333008 -38.31494141 80.64333008 -38.31494141 64.66333008 C-41.94494141 64.66333008 -45.57494141 64.66333008 -49.31494141 64.66333008 C-49.31494141 80.17333008 -49.31494141 95.68333008 -49.31494141 111.66333008 C-53.62101134 107.97241299 -57.57018764 104.52035642 -61.48071289 100.5 C-62.4449914 99.51276149 -63.40930252 98.52555484 -64.37364197 97.53837585 C-64.87243299 97.0257337 -65.37122402 96.51309155 -65.88512993 95.98491478 C-68.56536816 93.23518531 -71.26297994 90.50254914 -73.95751953 87.7668457 C-77.3683785 84.30202187 -80.77383963 80.832357 -84.16088867 77.34423828 C-86.91583259 74.50800461 -89.6877089 71.68933415 -92.47157478 68.88149452 C-93.52363517 67.81405473 -94.56939446 66.74036444 -95.60845757 65.66026878 C-101.72101633 58.80965249 -101.72101633 58.80965249 -109.95581055 55.56298828 C-111.61858032 55.61265747 -111.61858032 55.61265747 -113.31494141 55.66333008 C-114.31494141 54.66333008 -114.31494141 54.66333008 -114.36962891 52.46801758 C-113.29959036 35.02173693 -105.50215998 17.76940435 -93.72509766 4.85083008 C-92.31494141 3.66333008 -92.31494141 3.66333008 -90.31494141 3.66333008 C-89.98494141 2.67333008 -89.65494141 1.68333008 -89.31494141 0.66333008 C-63.87352878 -22.10770527 -25.56590845 -22.14055216 0 0 Z " fill="#FCFCFC" transform="translate(385.31494140625,136.336669921875)"/>
<path d="M0 0 C2.71258012 7.29005907 2.71258012 7.29005907 2 11 C-0.29922272 12.70755607 -2.36695483 13.99137503 -4.875 15.3125 C-11.45938998 19.00578444 -17.23843335 23.10048594 -23 28 C-24.010625 28.763125 -25.02125 29.52625 -26.0625 30.3125 C-49.51238062 51.7666461 -59.25844738 82.24854666 -62 113 C-62 113.66 -62 114.32 -62 115 C-61.01 115.33 -60.02 115.66 -59 116 C-58.67 117.65 -58.34 119.3 -58 121 C-58.66 121 -59.32 121 -60 121 C-60.76480918 144.31138388 -48.62507584 167.63077347 -34 185 C-33.32324219 185.81082031 -32.64648438 186.62164062 -31.94921875 187.45703125 C-14.87103563 207.20462843 10.45846436 220.98156706 36.61181641 223.84985352 C42.23346806 224.20329001 47.87014138 224.09968911 53.5 224.0625 C54.799375 224.05798828 56.09875 224.05347656 57.4375 224.04882812 C60.62504825 224.0371092 63.81249955 224.02070219 67 224 C67.50615298 225.26839526 68.00469099 226.53983102 68.5 227.8125 C68.91765625 228.87404297 68.91765625 228.87404297 69.34375 229.95703125 C70 232 70 232 70 235 C56.55021528 237.26274978 42.3357369 236.61925248 29 234 C28.01700928 233.8146167 28.01700928 233.8146167 27.01416016 233.62548828 C15.97292888 231.49572073 6.07630333 227.96444975 -4 223 C-5.00933594 222.50371094 -6.01867187 222.00742187 -7.05859375 221.49609375 C-32.68422361 208.15622686 -51.13773977 185.97684836 -63 160 C-63.36609375 159.23171875 -63.7321875 158.4634375 -64.109375 157.671875 C-76.1783188 130.3774944 -75.18856854 95.63984445 -64.72265625 68.23046875 C-57.9482241 51.24948579 -48.33671672 34.64858233 -34 23 C-33.2575 22.236875 -32.515 21.47375 -31.75 20.6875 C-25.14309206 14.23074906 -17.9331983 9.18045372 -10 4.5 C-9.24557617 4.05438721 -8.49115234 3.60877441 -7.71386719 3.1496582 C-2.26427204 0 -2.26427204 0 0 0 Z " fill="#262626" transform="translate(225,156)"/>
<path d="M0 0 C0.46996034 3.38545508 0.70326032 5.94400895 -1.24804688 8.87402344 C-3.00695971 10.80431226 -4.83831053 12.59606675 -6.75 14.375 C-7.70132812 15.31666016 -7.70132812 15.31666016 -8.671875 16.27734375 C-13.83544721 21.25803945 -13.83544721 21.25803945 -18 22 C-18 20.68 -18 19.36 -18 18 C-19.65 18.66 -21.3 19.32 -23 20 C-22.67 18.35 -22.34 16.7 -22 15 C-20.865625 14.87625 -19.73125 14.7525 -18.5625 14.625 C-17.386875 14.41875 -16.21125 14.2125 -15 14 C-14.67 13.34 -14.34 12.68 -14 12 C-13.01 11.67 -12.02 11.34 -11 11 C-9.77606525 8.04215769 -10.03483757 6.00272755 -11 3 C-9.02 3 -7.04 3 -5 3 C-5 2.34 -5 1.68 -5 1 C-3 0 -3 0 0 0 Z " fill="#202020" transform="translate(498,356)"/>
<path d="M0 0 C4.45045107 2.61222128 6.27391131 4.19161009 8 9 C10.01317219 10.80348078 10.01317219 10.80348078 12 12 C11.34 12.66 10.68 13.32 10 14 C11.11854586 17.72614153 11.11854586 17.72614153 14 20 C13.34 20 12.68 20 12 20 C12.33 20.99 12.66 21.98 13 23 C10 23 10 23 8.52734375 21.71484375 C8.00269531 21.12832031 7.47804688 20.54179687 6.9375 19.9375 C3.31568621 16.12138289 -0.68828329 13.28766864 -5.05859375 10.3828125 C-5.69925781 9.92648438 -6.33992188 9.47015625 -7 9 C-7 8.67 -7 8.34 -7 8 C-5.576875 7.9071875 -5.576875 7.9071875 -4.125 7.8125 C-3.09375 7.544375 -2.0625 7.27625 -1 7 C0.45291273 4.53744315 0.45291273 4.53744315 1 2 C0.34 1.67 -0.32 1.34 -1 1 C-0.67 0.67 -0.34 0.34 0 0 Z " fill="#292929" transform="translate(476,179)"/>
<path d="M0 0 C0 3 0 3 -1 5 C0.32 5 1.64 5 3 5 C2.79375 5.928125 2.5875 6.85625 2.375 7.8125 C1.63307034 11.15173402 1.63307034 11.15173402 4 14 C2.02 15.65 0.04 17.3 -2 19 C-2.99 17.68 -3.98 16.36 -5 15 C-3.68 15.33 -2.36 15.66 -1 16 C-1 15.01 -1 14.02 -1 13 C-1.99 12.67 -2.98 12.34 -4 12 C-4 11.34 -4 10.68 -4 10 C-4.66 10 -5.32 10 -6 10 C-5.67 10.99 -5.34 11.98 -5 13 C-5.99 13.66 -6.98 14.32 -8 15 C-8.99 16.485 -8.99 16.485 -10 18 C-13 18 -13 18 -16 16 C-10.72 10.72 -5.44 5.44 0 0 Z " fill="#2D2D2D" transform="translate(402,194)"/>
<path d="M0 0 C0.66 0 1.32 0 2 0 C2.33 0.99 2.66 1.98 3 3 C3.99 3.33 4.98 3.66 6 4 C6.44796936 7.06112396 6.48881708 9.20505506 4.83984375 11.88671875 C1.95516784 15.40587581 -0.47283259 17.80163216 -5 19 C-7.05427842 14.89144315 -7.38147508 12.40345181 -6 8 C-4.22505932 5.13836095 -2.3310115 2.43612342 0 0 Z " fill="#1F1F1F" transform="translate(188,182)"/>
<path d="M0 0 C0.33 0.66 0.66 1.32 1 2 C-0.01414686 3.73386399 -1.03031623 5.46665845 -2.06640625 7.1875 C-3.30657416 9.59518999 -3.45547696 11.34305109 -3 14 C-2.34 14.66 -1.68 15.32 -1 16 C-0.01 16 0.98 16 2 16 C0.02 18.97 -1.96 21.94 -4 25 C-4.99 24.67 -5.98 24.34 -7 24 C-7 23.34 -7 22.68 -7 22 C-6.34 21.67 -5.68 21.34 -5 21 C-5.66 20.67 -6.32 20.34 -7 20 C-7 19.34 -7 18.68 -7 18 C-7.928125 18.309375 -7.928125 18.309375 -8.875 18.625 C-9.57625 18.74875 -10.2775 18.8725 -11 19 C-11.66 18.34 -12.32 17.68 -13 17 C-11.58435393 15.10339726 -10.16751545 13.20770483 -8.75 11.3125 C-7.56664062 9.72888672 -7.56664062 9.72888672 -6.359375 8.11328125 C-4.28173517 5.37175982 -2.16319353 2.6742232 0 0 Z " fill="#292929" transform="translate(185,184)"/>
<path d="M0 0 C1.29608947 0.93137592 2.58671632 1.8703566 3.875 2.8125 C4.95394531 3.59560547 4.95394531 3.59560547 6.0546875 4.39453125 C8 6 8 6 10 9 C9.01 9.33 8.02 9.66 7 10 C7.33 11.98 7.66 13.96 8 16 C7.01 15.34 6.02 14.68 5 14 C4.8125 11.375 4.8125 11.375 5 9 C3.02 9.99 3.02 9.99 1 11 C1.99 12.485 1.99 12.485 3 14 C-0.99282941 14 -2.15331592 12.52191924 -5.1875 10 C-6.08855469 9.2575 -6.98960937 8.515 -7.91796875 7.75 C-8.60503906 7.1725 -9.29210937 6.595 -10 6 C-6.59442327 5.01245536 -4.46257778 5.25133453 -1 6 C0.29633621 4.93354885 0.29633621 4.93354885 0.0625 2.4375 C0.041875 1.633125 0.02125 0.82875 0 0 Z " fill="#2B2B2B" transform="translate(388,126)"/>
<path d="M0 0 C2.64 0 5.28 0 8 0 C8.33 0.66 8.66 1.32 9 2 C9.66 2.33 10.32 2.66 11 3 C10.31640625 4.9296875 10.31640625 4.9296875 9 7 C6.65234375 7.7578125 6.65234375 7.7578125 3.9375 8.125 C1.28770907 8.46105674 1.28770907 8.46105674 -1 9 C-1.33 9.66 -1.66 10.32 -2 11 C-2.66 11 -3.32 11 -4 11 C-4 9.02 -4 7.04 -4 5 C-2.68 4.34 -1.36 3.68 0 3 C0 2.01 0 1.02 0 0 Z " fill="#202020" transform="translate(208,166)"/>
<path d="M0 0 C2 0 2 0 3.625 1.3125 C5 3 5 3 5 6 C4.01 6 3.02 6 2 6 C2.99 7.485 2.99 7.485 4 9 C2.68 10.32 1.36 11.64 0 13 C-1.98 12.34 -3.96 11.68 -6 11 C-6.66 11.66 -7.32 12.32 -8 13 C-8 12.34 -8 11.68 -8 11 C-9.65 11 -11.3 11 -13 11 C-12.25 9.0625 -12.25 9.0625 -11 7 C-8.875 6.25 -8.875 6.25 -7 6 C-6.67 6.66 -6.34 7.32 -6 8 C-5.38125 7.38125 -4.7625 6.7625 -4.125 6.125 C-2.75 4.75 -1.375 3.375 0 2 C0 1.34 0 0.68 0 0 Z " fill="#1D1D1D" transform="translate(396,204)"/>
<path d="M0 0 C3.68802044 1.22934015 4.72356973 2.93859378 7 6 C5.70700306 8.88437779 4.34058637 10.87219421 2 13 C-0.375 12.3125 -0.375 12.3125 -3 11 C-4.3125 8.375 -4.3125 8.375 -5 6 C-3.35 4.02 -1.7 2.04 0 0 Z " fill="#2D2D2D" transform="translate(340,186)"/>
<path d="M0 0 C4.24404412 3.88026891 7.10917547 8.04254346 10 13 C6.125 11.125 6.125 11.125 5 10 C4.34 10.66 3.68 11.32 3 12 C2.67 11.34 2.34 10.68 2 10 C1.67 10.99 1.34 11.98 1 13 C0.01 11.35 -0.98 9.7 -2 8 C-2.33 9.65 -2.66 11.3 -3 13 C-6.875 8.25 -6.875 8.25 -8 6 C-6.68 5.67 -5.36 5.34 -4 5 C-3.8453125 4.0409375 -3.8453125 4.0409375 -3.6875 3.0625 C-3.460625 2.381875 -3.23375 1.70125 -3 1 C-2.01 0.67 -1.02 0.34 0 0 Z " fill="#292929" transform="translate(180,328)"/>
<path d="M0 0 C1.85625 0.2784375 1.85625 0.2784375 3.75 0.5625 C6.76279577 0.94711223 9.10010827 1.0874594 12 0 C12.375 2.25 12.375 2.25 12 5 C9.375 7.4375 9.375 7.4375 6 9 C2.8125 8.25 2.8125 8.25 0 7 C-0.99 7 -1.98 7 -3 7 C-2.34 6.01 -1.68 5.02 -1 4 C-1.33 3.34 -1.66 2.68 -2 2 C-1.34 2 -0.68 2 0 2 C0 1.34 0 0.68 0 0 Z " fill="#1F1F1F" transform="translate(463,378)"/>
<path d="M0 0 C2.94109096 1.24773556 3.6913151 3.06407096 5.0625 5.875 C5.0625 6.535 5.0625 7.195 5.0625 7.875 C5.7225 8.205 6.3825 8.535 7.0625 8.875 C6.7325 9.535 6.4025 10.195 6.0625 10.875 C5.4025 10.875 4.7425 10.875 4.0625 10.875 C4.0625 11.535 4.0625 12.195 4.0625 12.875 C1.0925 11.885 -1.8775 10.895 -4.9375 9.875 C-4.6075 8.885 -4.2775 7.895 -3.9375 6.875 C-2.9475 6.545 -1.9575 6.215 -0.9375 5.875 C-1.9275 4.225 -2.9175 2.575 -3.9375 0.875 C-1.9375 -0.125 -1.9375 -0.125 0 0 Z " fill="#212121" transform="translate(190.9375,343.125)"/>
<path d="M0 0 C3.19495886 3.69417118 4 5.17415172 4 10 C3.01 9.67 2.02 9.34 1 9 C1 8.34 1 7.68 1 7 C0.01 7 -0.98 7 -2 7 C-2.33 9.31 -2.66 11.62 -3 14 C-5.2477975 11.94766315 -6.0022242 10.99332739 -7 8 C-6.34 7.01 -5.68 6.02 -5 5 C-5 4.01 -5 3.02 -5 2 C-3.35 1.34 -1.7 0.68 0 0 Z " fill="#2B2B2B" transform="translate(507,210)"/>
<path d="M0 0 C4.14440439 2.19409644 8.40336838 5.00743484 11 9 C10.8515625 11.12890625 10.8515625 11.12890625 10 13 C9.01 13.33 8.02 13.66 7 14 C4.72478134 11.83312509 2.84205838 9.54379491 1 7 C1.66 6.34 2.32 5.68 3 5 C1.68 3.68 0.36 2.36 -1 1 C-0.67 0.67 -0.34 0.34 0 0 Z " fill="#202020" transform="translate(483,185)"/>
<path d="M0 0 C0.99 0 1.98 0 3 0 C3.66 1.32 4.32 2.64 5 4 C1.04 7.96 -2.92 11.92 -7 16 C-7.33 15.01 -7.66 14.02 -8 13 C-7.01 12.67 -6.02 12.34 -5 12 C-4.29805007 10.19747131 -4.29805007 10.19747131 -4 8 C-3.814375 7.0925 -3.62875 6.185 -3.4375 5.25 C-3.2209375 4.13625 -3.2209375 4.13625 -3 3 C-2.34 3 -1.68 3 -1 3 C-0.67 2.01 -0.34 1.02 0 0 Z " fill="#262626" transform="translate(390,214)"/>
<path d="M0 0 C1.875 0.5625 1.875 0.5625 4 2 C5.25 5.625 5.25 5.625 6 9 C1.74938644 10.41687119 -0.71851625 9.19320039 -5 8 C-5 7.01 -5 6.02 -5 5 C-4.01 5 -3.02 5 -2 5 C-1.34 3.35 -0.68 1.7 0 0 Z " fill="#1E1E1E" transform="translate(383,123)"/>
<path d="M0 0 C3 3.625 3 3.625 3 7 C0.465888 9.534112 -1.46230017 9.39257035 -4.9296875 9.65625 C-7.25152206 10.04176215 -8.95271705 10.86160051 -11 12 C-7.49102731 7.81576108 -3.91939465 3.80411834 0 0 Z " fill="#2F2F2F" transform="translate(369,226)"/>
<path d="M0 0 C0.33 0.66 0.66 1.32 1 2 C-0.375 4 -0.375 4 -2 6 C-2.66 6 -3.32 6 -4 6 C-5.96441218 7.68130512 -5.96441218 7.68130512 -8 9.8125 C-8.70125 10.52019531 -9.4025 11.22789062 -10.125 11.95703125 C-12.14996733 14.05818711 -12.14996733 14.05818711 -14 17 C-15.7265625 18.38671875 -15.7265625 18.38671875 -17.625 19.6875 C-18.57246094 20.34298828 -18.57246094 20.34298828 -19.5390625 21.01171875 C-20.26222656 21.50091797 -20.26222656 21.50091797 -21 22 C-16.64375683 12.6564691 -7.94664358 6.20831529 0 0 Z " fill="#E3E3E3" transform="translate(209,177)"/>
<path d="M0 0 C1.32 0.33 2.64 0.66 4 1 C3.67 1.99 3.34 2.98 3 4 C3.99 4.33 4.98 4.66 6 5 C5.67 5.99 5.34 6.98 5 8 C3.02 8.33 1.04 8.66 -1 9 C-2.00016187 6.99967627 -2.49396008 5.16874252 -3 3 C-2.01 2.67 -1.02 2.34 0 2 C0 1.34 0 0.68 0 0 Z " fill="#1E1E1E" transform="translate(243,378)"/>
<path d="M0 0 C0.99 0.495 0.99 0.495 2 1 C1.34 1.66 0.68 2.32 0 3 C0 2.01 0 1.02 0 0 Z M-8.3984375 2.8046875 C-7.40070313 2.82789062 -6.40296875 2.85109375 -5.375 2.875 C-3.87066406 2.90207031 -3.87066406 2.90207031 -2.3359375 2.9296875 C-1.56507813 2.95289062 -0.79421875 2.97609375 0 3 C-1.7890625 7.8671875 -1.7890625 7.8671875 -3.6875 9.0625 C-7.43164548 8.96130688 -9.86889188 6.98704938 -13 5 C-11 3 -11 3 -8.3984375 2.8046875 Z " fill="#2C2C2C" transform="translate(382,122)"/>
<path d="M0 0 C-0.639375 0.61875 -1.27875 1.2375 -1.9375 1.875 C-4.03883584 3.82597612 -4.03883584 3.82597612 -5 6 C-5.66 6 -6.32 6 -7 6 C-7 6.66 -7 7.32 -7 8 C-10.39914975 6.86695008 -11.05254451 5.87481525 -13 3 C-11.40084119 2.30093058 -9.79544955 1.61610532 -8.1875 0.9375 C-7.29417969 0.55464844 -6.40085937 0.17179687 -5.48046875 -0.22265625 C-3 -1 -3 -1 0 0 Z " fill="#2C2C2C" transform="translate(322,113)"/>
<path d="M0 0 C0.66 0.66 1.32 1.32 2 2 C1.62793814 6.34072171 -0.22951915 10.07415115 -2 14 C-2.99 13.67 -3.98 13.34 -5 13 C-4.55005243 11.20620902 -4.08975857 9.41501072 -3.625 7.625 C-3.36976563 6.62726563 -3.11453125 5.62953125 -2.8515625 4.6015625 C-2 2 -2 2 0 0 Z " fill="#2A2A2A" transform="translate(517,306)"/>
<path d="M0 0 C0.90492188 0.02320313 1.80984375 0.04640625 2.7421875 0.0703125 C4.10730469 0.09738281 4.10730469 0.09738281 5.5 0.125 C6.19867188 0.14820313 6.89734375 0.17140625 7.6171875 0.1953125 C7.9471875 0.8553125 8.2771875 1.5153125 8.6171875 2.1953125 C7.4415625 2.35 7.4415625 2.35 6.2421875 2.5078125 C3.28673569 2.97126272 3.28673569 2.97126272 1.6171875 6.1953125 C-0.0328125 5.8653125 -1.6828125 5.5353125 -3.3828125 5.1953125 C-3.7128125 4.2053125 -4.0428125 3.2153125 -4.3828125 2.1953125 C-2.3828125 0.1953125 -2.3828125 0.1953125 0 0 Z " fill="#1D1D1D" transform="translate(209.3828125,363.8046875)"/>
<path d="M0 0 C0.33 0.66 0.66 1.32 1 2 C1.66 2 2.32 2 3 2 C3 6 3 6 1.8125 7.75 C-0.55883336 9.38540232 -2.18076123 9.22858693 -5 9 C-5 7.02 -5 5.04 -5 3 C-4.01 3.495 -4.01 3.495 -3 4 C-2.01 2.68 -1.02 1.36 0 0 Z " fill="#1E1E1E" transform="translate(417,182)"/>
<path d="M0 0 C0.33 0.99 0.66 1.98 1 3 C0.01 3.66 -0.98 4.32 -2 5 C-2.99 6.485 -2.99 6.485 -4 8 C-7 8 -7 8 -10 6 C-4.4 0 -4.4 0 0 0 Z " fill="#262626" transform="translate(396,204)"/>
<path d="M0 0 C0.33 0.99 0.66 1.98 1 3 C3.97 3.33 6.94 3.66 10 4 C10.33 4.99 10.66 5.98 11 7 C5.58461538 10.07692308 5.58461538 10.07692308 2.625 9.6875 C2.08875 9.460625 1.5525 9.23375 1 9 C1.99 8.01 2.98 7.02 4 6 C2.35 5.67 0.7 5.34 -1 5 C-1.33 3.68 -1.66 2.36 -2 1 C-1.34 0.67 -0.68 0.34 0 0 Z " fill="#2A2A2A" transform="translate(302,120)"/>
<path d="M0 0 C2 3.75 2 3.75 2 6 C1.34 6 0.68 6 0 6 C0 6.66 0 7.32 0 8 C-1.32 8.33 -2.64 8.66 -4 9 C-4.99 7.68 -5.98 6.36 -7 5 C-6.01 4.34 -5.02 3.68 -4 3 C-3.67 2.34 -3.34 1.68 -3 1 C-2.01 0.67 -1.02 0.34 0 0 Z " fill="#1C1C1C" transform="translate(373,117)"/>
<path d="M0 0 C0.99 0.495 0.99 0.495 2 1 C3.32860925 1.35169068 4.66158328 1.68770276 6 2 C6.33 4.31 6.66 6.62 7 9 C5.125 9.625 5.125 9.625 3 10 C1 8 1 8 0 5 C0 3.33333333 0 1.66666667 0 0 Z " fill="#1D1D1D" transform="translate(370,226)"/>
<path d="M0 0 C0.99 0.66 1.98 1.32 3 2 C2.67 3.32 2.34 4.64 2 6 C1.34 6 0.68 6 0 6 C0 6.66 0 7.32 0 8 C-1.32 7.67 -2.64 7.34 -4 7 C-4.33 7.66 -4.66 8.32 -5 9 C-4.67 6.36 -4.34 3.72 -4 1 C-3.01 1 -2.02 1 -1 1 C-0.67 1.33 -0.34 1.66 0 2 C0 1.34 0 0.68 0 0 Z " fill="#1D1D1D" transform="translate(509,216)"/>
<path d="M0 0 C0.66 0.33 1.32 0.66 2 1 C3.27536232 6.44927536 3.27536232 6.44927536 2 9 C-1.93673644 7.68775452 -4.22719294 6.08089673 -7 3 C-6.21625 3.061875 -5.4325 3.12375 -4.625 3.1875 C-3.75875 3.125625 -2.8925 3.06375 -2 3 C-1.34 2.01 -0.68 1.02 0 0 Z " fill="#2A2A2A" transform="translate(213,366)"/>
<path d="M0 0 C0 4.07546013 -1.55304448 5.80536362 -4 9 C-5.32467746 9.6837045 -6.65863633 10.34964186 -8 11 C-9.80372039 12.91225371 -11.37678205 14.92588818 -13 17 C-13.99 16.34 -14.98 15.68 -16 15 C-15.27296875 14.38125 -15.27296875 14.38125 -14.53125 13.75 C-9.45749491 9.37876484 -4.67847866 4.79046352 0 0 Z " fill="#E1E1E1" transform="translate(381,230)"/>
<path d="M0 0 C0.66 0.33 1.32 0.66 2 1 C1.34 3.31 0.68 5.62 0 8 C-1.32 8.33 -2.64 8.66 -4 9 C-4.66 7.68 -5.32 6.36 -6 5 C-4.02 3.35 -2.04 1.7 0 0 Z " fill="#292929" transform="translate(376,220)"/>
<path d="M0 0 C1.98 0 3.96 0 6 0 C5.875 2.3125 5.875 2.3125 5 5 C1.9375 6.8125 1.9375 6.8125 -1 8 C-2 6 -2 6 -1.0625 2.875 C-0.5365625 1.451875 -0.5365625 1.451875 0 0 Z " fill="#1E1E1E" transform="translate(172,202)"/>
<path d="M0 0 C2 0.0625 2 0.0625 4 1 C5.3125 3.4375 5.3125 3.4375 6 6 C5.67 6.66 5.34 7.32 5 8 C1.63279613 6.60667426 0.0140476 5.0210714 -2 2 C-1.34 1.34 -0.68 0.68 0 0 Z " fill="#2F2F2F" transform="translate(274,199)"/>
<path d="M0 0 C0.66 1.32 1.32 2.64 2 4 C2.66 3.34 3.32 2.68 4 2 C4.33 3.98 4.66 5.96 5 8 C3.02 8 1.04 8 -1 8 C-1 6.68 -1 5.36 -1 4 C-1.99 4.495 -1.99 4.495 -3 5 C-3 3.68 -3 2.36 -3 1 C-2.01 0.67 -1.02 0.34 0 0 Z " fill="#1B1B1B" transform="translate(501,345)"/>
<path d="M0 0 C2.97 0.495 2.97 0.495 6 1 C5.58578031 5.83256305 3.53586014 7.82679218 0 11 C0.66666667 8.33333333 1.33333333 5.66666667 2 3 C0.35 3.33 -1.3 3.66 -3 4 C-2.01 2.68 -1.02 1.36 0 0 Z " fill="#252525" transform="translate(382,214)"/>
<path d="M0 0 C0.33 0.99 0.66 1.98 1 3 C0.34 3 -0.32 3 -1 3 C-1 3.66 -1 4.32 -1 5 C-0.01 5.33 0.98 5.66 2 6 C1.01 6.495 1.01 6.495 0 7 C0.33 7.99 0.66 8.98 1 10 C0.01 10.66 -0.98 11.32 -2 12 C-3.04293785 8.61045199 -3.30754089 5.53672026 -3 2 C-2.01 1.34 -1.02 0.68 0 0 Z " fill="#232323" transform="translate(379,222)"/>
<path d="M0 0 C1.32 0.66 2.64 1.32 4 2 C2.95125002 4.62187494 2.35068687 5.79371361 -0.125 7.25 C-0.74375 7.4975 -1.3625 7.745 -2 8 C-2.66 6.68 -3.32 5.36 -4 4 C-2.68 2.68 -1.36 1.36 0 0 Z " fill="#1D1D1D" transform="translate(343,190)"/>
<path d="M0 0 C0.33 1.65 0.66 3.3 1 5 C0.67 4.34 0.34 3.68 0 3 C-0.66 3.66 -1.32 4.32 -2 5 C-2 5.99 -2 6.98 -2 8 C-3.32 7.67 -4.64 7.34 -6 7 C-6.33 5.68 -6.66 4.36 -7 3 C-2.25 0 -2.25 0 0 0 Z " fill="#292929" transform="translate(409,155)"/>
<path d="M0 0 C0.86625 0.556875 0.86625 0.556875 1.75 1.125 C1.09 2.445 0.43 3.765 -0.25 5.125 C-0.25 4.465 -0.25 3.805 -0.25 3.125 C-0.848125 3.62 -1.44625 4.115 -2.0625 4.625 C-4.25 6.125 -4.25 6.125 -7.25 6.125 C-7 3.75 -7 3.75 -6.25 1.125 C-3.80299775 -0.81572592 -2.94395499 -1.14487138 0 0 Z " fill="#1E1E1E" transform="translate(409.25,151.875)"/>
<path d="M0 0 C0.99 0.33 1.98 0.66 3 1 C3 1.66 3 2.32 3 3 C3.99 3 4.98 3 6 3 C6 3.66 6 4.32 6 5 C6.99 5.33 7.98 5.66 9 6 C8.34 6.66 7.68 7.32 7 8 C6.46375 7.484375 5.9275 6.96875 5.375 6.4375 C2.99503501 4.67394455 2.99503501 4.67394455 -0.25 5.3125 C-1.1575 5.539375 -2.065 5.76625 -3 6 C-2.01 4.02 -1.02 2.04 0 0 Z " fill="#2B2B2B" transform="translate(275,147)"/>
<path d="M0 0 C1.64826111 2.96687001 2.44271087 5.65626525 3 9 C2.01 9 1.02 9 0 9 C0 8.34 0 7.68 0 7 C-0.99 6.67 -1.98 6.34 -3 6 C-3 4.68 -3 3.36 -3 2 C-2.01 2 -1.02 2 0 2 C0 1.34 0 0.68 0 0 Z " fill="#363636" transform="translate(292,382)"/>
<path d="M0 0 C0.66 0 1.32 0 2 0 C2.12375 0.639375 2.2475 1.27875 2.375 1.9375 C2.684375 2.9584375 2.684375 2.9584375 3 4 C3.66 4.33 4.32 4.66 5 5 C4.67 5.66 4.34 6.32 4 7 C3.34 7 2.68 7 2 7 C2 7.66 2 8.32 2 9 C-2.875 7.25 -2.875 7.25 -4 5 C-3.01 5 -2.02 5 -1 5 C-0.67 3.35 -0.34 1.7 0 0 Z " fill="#1B1B1B" transform="translate(193,347)"/>
<path d="M0 0 C-2.97 3.96 -2.97 3.96 -6 8 C-8 5 -8 5 -9 2 C-8.01 2.33 -7.02 2.66 -6 3 C-5.67 2.34 -5.34 1.68 -5 1 C-5.66 0.67 -6.32 0.34 -7 0 C-4 -1 -4 -1 0 0 Z " fill="#2C2C2C" transform="translate(194,191)"/>
<path d="M0 0 C2.92879371 0.62759865 5.36095629 1.58622659 8 3 C8 2.34 8 1.68 8 1 C8.99 1.33 9.98 1.66 11 2 C10.01 2.495 10.01 2.495 9 3 C8.67 3.99 8.34 4.98 8 6 C5 6 5 6 3.61328125 4.6875 C2.40885417 3.125 1.20442708 1.5625 0 0 Z " fill="#2B2B2B" transform="translate(187,353)"/>
<path d="M0 0 C0.33 1.32 0.66 2.64 1 4 C0.34 4 -0.32 4 -1 4 C-1 4.66 -1 5.32 -1 6 C-1.99 6.33 -2.98 6.66 -4 7 C-4.66 5.02 -5.32 3.04 -6 1 C-4 0 -4 0 0 0 Z " fill="#1D1D1D" transform="translate(230,371)"/>
<path d="M0 0 C3.3 0 6.6 0 10 0 C9.34 1.65 8.68 3.3 8 5 C5.36 3.68 2.72 2.36 0 1 C0 0.67 0 0.34 0 0 Z " fill="#2B2B2B" transform="translate(453,177)"/>
<path d="M0 0 C0.99 0 1.98 0 3 0 C3.33 0.99 3.66 1.98 4 3 C2.78515625 5.04296875 2.78515625 5.04296875 1.0625 7.1875 C0.49660156 7.90292969 -0.06929687 8.61835938 -0.65234375 9.35546875 C-1.09707031 9.89816406 -1.54179687 10.44085938 -2 11 C-2.33 10.34 -2.66 9.68 -3 9 C-2.06553465 6.96855359 -1.06775224 4.96466413 0 3 C-0.66 3 -1.32 3 -2 3 C-1 1 -1 1 0 0 Z " fill="#1A1A1A" transform="translate(164,221)"/>
<path d="M0 0 C0.99 0.33 1.98 0.66 3 1 C2.360625 1.5775 1.72125 2.155 1.0625 2.75 C-0.98223868 4.98062401 -1.58205199 6.07436391 -2 9 C-2.66 9 -3.32 9 -4 9 C-4.66 10.32 -5.32 11.64 -6 13 C-6 9.32965255 -4.9247108 7.9000569 -3 4.8125 C-2.443125 3.91144531 -1.88625 3.01039063 -1.3125 2.08203125 C-0.6628125 1.05142578 -0.6628125 1.05142578 0 0 Z " fill="#E8E8E8" transform="translate(182,206)"/>
<path d="M0 0 C0.66 0 1.32 0 2 0 C4 3 4 3 3.8125 5.5625 C3 8 3 8 0 10 C-0.33 9.01 -0.66 8.02 -1 7 C-0.34 6.01 0.32 5.02 1 4 C0.69159401 1.84725052 0.69159401 1.84725052 0 0 Z " fill="#292929" transform="translate(406,197)"/>
<path d="M0 0 C-1.5830577 4.2742558 -4.50568404 6.26531794 -8 9 C-7.67 7.68 -7.34 6.36 -7 5 C-6.34 5 -5.68 5 -5 5 C-4.87625 4.360625 -4.7525 3.72125 -4.625 3.0625 C-4.41875 2.381875 -4.2125 1.70125 -4 1 C-2 0 -2 0 0 0 Z " fill="#373737" transform="translate(390,221)"/>
<path d="M0 0 C0.99 0 1.98 0 3 0 C3 0.66 3 1.32 3 2 C3.66 2.33 4.32 2.66 5 3 C4.34 3 3.68 3 3 3 C3.33 3.99 3.66 4.98 4 6 C3.01 6 2.02 6 1 6 C-0.6875 4 -0.6875 4 -2 2 C-1.34 2 -0.68 2 0 2 C0 1.34 0 0.68 0 0 Z " fill="#313131" transform="translate(485,196)"/>
<path d="M0 0 C0.66 0.99 1.32 1.98 2 3 C2.66 2.67 3.32 2.34 4 2 C3.34 3.98 2.68 5.96 2 8 C1.01 7.67 0.02 7.34 -1 7 C-1 6.34 -1 5.68 -1 5 C-1.66 4.67 -2.32 4.34 -3 4 C-2.01 2.68 -1.02 1.36 0 0 Z " fill="#303030" transform="translate(497,346)"/>
<path d="M0 0 C0.33 0.66 0.66 1.32 1 2 C-0.28182342 4.39273706 -1.59280943 6.68740775 -3 9 C-3.33 9.66 -3.66 10.32 -4 11 C-4.99 10.67 -5.98 10.34 -7 10 C-4.93992341 6.39486597 -2.6486859 3.19668988 0 0 Z " fill="#3C3C3C" transform="translate(185,184)"/>
<path d="M0 0 C0.33 0 0.66 0 1 0 C1 2.64 1 5.28 1 8 C0.34 8 -0.32 8 -1 8 C-1.66 8.66 -2.32 9.32 -3 10 C-2.67 7.36 -2.34 4.72 -2 2 C-1.34 2 -0.68 2 0 2 C0 1.34 0 0.68 0 0 Z " fill="#3F3F3F" transform="translate(157,240)"/>
<path d="M0 0 C0.93065133 2.60582371 1.14917407 3.64198224 0.0625 6.25 C-0.4634375 7.11625 -0.4634375 7.11625 -1 8 C-1.99 7.67 -2.98 7.34 -4 7 C-4 5.68 -4 4.36 -4 3 C-2.68 3 -1.36 3 0 3 C0 2.01 0 1.02 0 0 Z " fill="#1E1E1E" transform="translate(366,238)"/>
<path d="M0 0 C0.66 0.33 1.32 0.66 2 1 C2 3.66666667 2 6.33333333 2 9 C0.02 6.69 -1.96 4.38 -4 2 C-2.68 1.34 -1.36 0.68 0 0 Z " fill="#1C1C1C" transform="translate(392,134)"/>
<path d="M0 0 C1.32 1.32 2.64 2.64 4 4 C1.525 5.485 1.525 5.485 -1 7 C-1.33 5.35 -1.66 3.7 -2 2 C-1.34 2 -0.68 2 0 2 C0 1.34 0 0.68 0 0 Z " fill="#303030" transform="translate(361,243)"/>
<path d="M0 0 C0.66 1.32 1.32 2.64 2 4 C1.67 4.99 1.34 5.98 1 7 C1 6.34 1 5.68 1 5 C-1.31 5.66 -3.62 6.32 -6 7 C-4.02 4.69 -2.04 2.38 0 0 Z " fill="#373737" transform="translate(397,199)"/>
<path d="M0 0 C5.53846154 -0.36923077 5.53846154 -0.36923077 7.875 1.5 C8.24625 1.995 8.6175 2.49 9 3 C6.69 3.33 4.38 3.66 2 4 C1.34 2.68 0.68 1.36 0 0 Z " fill="#2D2D2D" transform="translate(207,361)"/>
<path d="M0 0 C0.99 0 1.98 0 3 0 C3 2.31 3 4.62 3 7 C0.525 6.01 0.525 6.01 -2 5 C-1.34 4.01 -0.68 3.02 0 2 C0 1.34 0 0.68 0 0 Z " fill="#1B1B1B" transform="translate(495,356)"/>
<path d="M0 0 C1.32 0.66 2.64 1.32 4 2 C3.34 3.32 2.68 4.64 2 6 C0.68 5.34 -0.64 4.68 -2 4 C-1.34 2.68 -0.68 1.36 0 0 Z " fill="#1D1D1D" transform="translate(173,329)"/>
<path d="M0 0 C2.0625 0.75 2.0625 0.75 4 2 C4.33 2.99 4.66 3.98 5 5 C2 5 2 5 -0.1875 3 C-0.785625 2.34 -1.38375 1.68 -2 1 C-1.34 0.67 -0.68 0.34 0 0 Z " fill="#E3E3E3" transform="translate(485,183)"/>
<path d="M0 0 C2.475 0.495 2.475 0.495 5 1 C5.33 1.99 5.66 2.98 6 4 C5.34 5.32 4.68 6.64 4 8 C2.68 5.36 1.36 2.72 0 0 Z " fill="#323232" transform="translate(397,150)"/>
<path d="M0 0 C2.31 0.66 4.62 1.32 7 2 C5.75 3.5 5.75 3.5 4 5 C2.68 5 1.36 5 0 5 C0.33 4.34 0.66 3.68 1 3 C0.67 2.01 0.34 1.02 0 0 Z " fill="#1F1F1F" transform="translate(458,386)"/>
<path d="M0 0 C1.32 1.32 2.64 2.64 4 4 C3.67 4.66 3.34 5.32 3 6 C2.01 6.33 1.02 6.66 0 7 C-1.125 2.25 -1.125 2.25 0 0 Z " fill="#202020" transform="translate(177,335)"/>
<path d="M0 0 C1.32 0.66 2.64 1.32 4 2 C2.35 3.65 0.7 5.3 -1 7 C-0.67 4.69 -0.34 2.38 0 0 Z " fill="#323232" transform="translate(367,238)"/>
<path d="M0 0 C0.33 0.66 0.66 1.32 1 2 C1.66 2 2.32 2 3 2 C2.34 3.98 1.68 5.96 1 8 C0.34 7.67 -0.32 7.34 -1 7 C-0.67 4.69 -0.34 2.38 0 0 Z " fill="#333333" transform="translate(161,222)"/>
<path d="M0 0 C0.66 0.33 1.32 0.66 2 1 C2 2.98 2 4.96 2 7 C0.68 6.67 -0.64 6.34 -2 6 C-1.34 4.02 -0.68 2.04 0 0 Z " fill="#303030" transform="translate(164,216)"/>
<path d="M0 0 C-2.32945234 1.55296823 -4.51551976 2.75775988 -7 4 C-7.66 3.67 -8.32 3.34 -9 3 C-9 2.34 -9 1.68 -9 1 C-3.375 -1.125 -3.375 -1.125 0 0 Z " fill="#1A1A1A" transform="translate(466,174)"/>
<path d="M0 0 C0.66 0 1.32 0 2 0 C1.6875 1.9375 1.6875 1.9375 1 4 C0.01 4.33 -0.98 4.66 -2 5 C-1.125 1.125 -1.125 1.125 0 0 Z M-3 5 C-2.01 5.495 -2.01 5.495 -1 6 C-1.33 6.66 -1.66 7.32 -2 8 C-2.33 7.01 -2.66 6.02 -3 5 Z " fill="#1E1E1E" transform="translate(281,139)"/>
<path d="M0 0 C0.928125 0.2784375 0.928125 0.2784375 1.875 0.5625 C4.04160178 1.23686176 4.04160178 1.23686176 6 0 C6 0.99 6 1.98 6 3 C3.69 3.33 1.38 3.66 -1 4 C-0.67 2.68 -0.34 1.36 0 0 Z " fill="#1C1C1C" transform="translate(376,122)"/>
<path d="M0 0 C0.66 0 1.32 0 2 0 C0.84826645 2.46800047 -0.04783565 4.04783565 -2 6 C-2.99 5.67 -3.98 5.34 -5 5 C-3.625 3.5 -3.625 3.5 -2 2 C-1.34 2 -0.68 2 0 2 C0 1.34 0 0.68 0 0 Z " fill="#2B2B2B" transform="translate(486,371)"/>
<path d="M0 0 C0.66 0.33 1.32 0.66 2 1 C1.67 2.65 1.34 4.3 1 6 C-1.475 5.01 -1.475 5.01 -4 4 C-2.68 2.68 -1.36 1.36 0 0 Z " fill="#353535" transform="translate(376,220)"/>
<path d="M0 0 C2.475 0.99 2.475 0.99 5 2 C4.67 2.66 4.34 3.32 4 4 C4 4.66 4 5.32 4 6 C3.01 5.67 2.02 5.34 1 5 C1 4.34 1 3.68 1 3 C0.34 3 -0.32 3 -1 3 C-0.67 2.01 -0.34 1.02 0 0 Z " fill="#2E2E2E" transform="translate(507,214)"/>
<path d="M0 0 C1.98 0.495 1.98 0.495 4 1 C3.34 2.32 2.68 3.64 2 5 C1.01 5 0.02 5 -1 5 C-0.67 3.35 -0.34 1.7 0 0 Z " fill="#1D1D1D" transform="translate(495,199)"/>
<path d="M0 0 C1.98 0 3.96 0 6 0 C6 0.99 6 1.98 6 3 C4.02 3.99 4.02 3.99 2 5 C1.34 3.35 0.68 1.7 0 0 Z " fill="#191919" transform="translate(181,196)"/>
<path d="M0 0 C0.33 0 0.66 0 1 0 C1 2.97 1 5.94 1 9 C-0.32 9 -1.64 9 -3 9 C-2.67 8.01 -2.34 7.02 -2 6 C-1.34 6 -0.68 6 0 6 C0 4.02 0 2.04 0 0 Z " fill="#3A3A3A" transform="translate(420,182)"/>
<path d="M0 0 C2.31 0.66 4.62 1.32 7 2 C6.67 2.99 6.34 3.98 6 5 C4.35 4.67 2.7 4.34 1 4 C0.67 2.68 0.34 1.36 0 0 Z " fill="#333333" transform="translate(438,161)"/>
<path d="M0 0 C0.66 0.33 1.32 0.66 2 1 C2 2.65 2 4.3 2 6 C0.68 6 -0.64 6 -2 6 C-1.34 4.02 -0.68 2.04 0 0 Z " fill="#363636" transform="translate(270,155)"/>
<path d="M0 0 C1.65 1.65 3.3 3.3 5 5 C4.67 5.66 4.34 6.32 4 7 C3.34 7 2.68 7 2 7 C2 6.34 2 5.68 2 5 C1.34 5 0.68 5 0 5 C0 3.35 0 1.7 0 0 Z " fill="#3C3C3C" transform="translate(398,135)"/>
</svg>
